<svg xmlns="http://www.w3.org/2000/svg" version="1.1" xmlns:xlink="http://www.w3.org/1999/xlink" xmlns:svgjs="http://svgjs.dev/svgjs" width="2000" height="1247" viewBox="0 0 2000 1247"><g transform="matrix(1,0,0,1,-1.2121212121212466,0.5048582995952984)"><svg viewBox="0 0 396 247" data-background-color="#ffffff" preserveAspectRatio="xMidYMid meet" height="1247" width="2000" xmlns="http://www.w3.org/2000/svg" xmlns:xlink="http://www.w3.org/1999/xlink"><g id="tight-bounds" transform="matrix(1,0,0,1,0.2400000000000091,-0.09999999999999432)"><svg viewBox="0 0 395.52 247.2" height="247.2" width="395.52"><g><svg></svg></g><g><svg viewBox="0 0 395.52 247.2" height="247.2" width="395.52"><g transform="matrix(1,0,0,1,75.54432,68.800522448571)"><svg viewBox="0 0 244.43135999999998 109.59895510285799" height="109.59895510285799" width="244.43135999999998"><g><svg viewBox="0 0 244.43135999999998 109.59895510285799" height="109.59895510285799" width="244.43135999999998"><g><svg viewBox="0 0 244.43135999999998 109.59895510285799" height="109.59895510285799" width="244.43135999999998"><g><svg viewBox="0 0 244.43135999999998 109.59895510285799" height="109.59895510285799" width="244.43135999999998"><g id="textblocktransform"><svg viewBox="0 0 244.43135999999998 109.59895510285799" height="109.59895510285799" width="244.43135999999998" id="textblock"><g><svg viewBox="0 0 244.43135999999998 66.29353729637528" height="66.29353729637528" width="244.43135999999998"><g transform="matrix(1,0,0,1,0,0)"><svg width="244.43135999999998" viewBox="4.38 -33.33 162.83 44.16" height="66.29353729637528" data-palette-color="#000000"><path d="M13.13 0L4.38 0 4.38-31.25 13.13-31.25Q16.11-31.25 17.86-30.07 19.62-28.89 20.38-27.2 21.15-25.52 21.15-24.03L21.15-24.03Q21.15-22.33 20.36-20.92 19.58-19.51 18.26-18.61L18.26-18.61Q20.8-17.47 22.38-15.17 23.96-12.88 23.96-9.97L23.96-9.97Q23.96-7.5 22.73-5.21 21.49-2.92 19.08-1.46 16.67 0 13.13 0L13.13 0ZM8.33-16.67L8.33-3.54 12.85-3.54Q15.42-3.54 16.98-4.55 18.54-5.56 19.27-7.08 20-8.61 20-10.1L20-10.1Q20-11.56 19.31-13.09 18.61-14.62 17.05-15.64 15.49-16.67 12.85-16.67L12.85-16.67 8.33-16.67ZM8.33-27.71L8.33-20 12.81-20Q14.86-20 16.13-20.99 17.4-21.98 17.4-23.82L17.4-23.82Q17.4-25.73 16.15-26.72 14.9-27.71 12.95-27.71L12.95-27.71 8.33-27.71ZM33.12 0L29.37 0 29.37-33.33 33.12-33.33 33.12 0ZM49.3 0.42L49.3 0.42Q46.28 0.42 43.78-1.04 41.28-2.5 39.8-4.97 38.33-7.43 38.33-10.42L38.33-10.42Q38.33-13.44 39.8-15.89 41.28-18.33 43.78-19.79 46.28-21.25 49.3-21.25L49.3-21.25Q52.36-21.25 54.84-19.79 57.32-18.33 58.8-15.89 60.27-13.44 60.27-10.42L60.27-10.42Q60.27-7.43 58.8-4.97 57.32-2.5 54.84-1.04 52.36 0.42 49.3 0.42ZM49.3-3.13L49.3-3.13Q51.31-3.13 52.95-4.11 54.58-5.1 55.55-6.75 56.52-8.4 56.52-10.42L56.52-10.42Q56.52-12.43 55.55-14.08 54.58-15.73 52.95-16.72 51.31-17.71 49.3-17.71L49.3-17.71Q47.29-17.71 45.65-16.72 44.02-15.73 43.05-14.08 42.08-12.43 42.08-10.42L42.08-10.42Q42.08-8.4 43.05-6.75 44.02-5.1 45.65-4.11 47.29-3.13 49.3-3.13ZM73.92 10.83L73.92 10.83Q71.52 10.83 69.56 10.14 67.6 9.44 66.07 8.23L66.07 8.23 67.11 3.99Q68.15 5.49 69.89 6.42 71.62 7.36 73.88 7.36L73.88 7.36Q77.39 7.36 79.56 5.24 81.73 3.13 81.73-0.21L81.73-0.21 81.73-2.74Q80.34-1.35 78.45-0.54 76.56 0.28 74.4 0.28L74.4 0.28Q71.56 0.28 69.19-1.16 66.83-2.6 65.43-5.03 64.02-7.47 64.02-10.42L64.02-10.42Q64.02-13.37 65.43-15.8 66.83-18.23 69.19-19.67 71.56-21.11 74.4-21.11L74.4-21.11Q76.56-21.11 78.45-20.31 80.34-19.51 81.73-18.09L81.73-18.09 81.73-20.83 85.2-20.83 85.2 0Q85.2 3.4 83.62 5.83 82.04 8.26 79.47 9.55 76.9 10.83 73.92 10.83ZM74.89-3.13L74.89-3.13Q76.87-3.13 78.48-4.11 80.1-5.1 81.05-6.75 82.01-8.4 82.01-10.42L82.01-10.42Q82.01-12.43 81.05-14.08 80.1-15.73 78.48-16.72 76.87-17.71 74.89-17.71L74.89-17.71Q72.91-17.71 71.29-16.72 69.68-15.73 68.73-14.08 67.77-12.43 67.77-10.42L67.77-10.42Q67.77-8.4 68.73-6.75 69.68-5.1 71.29-4.11 72.91-3.13 74.89-3.13ZM93.15 0L89.16 0 102.39-32.29 102.46-32.29 115.68 0 111.48 0 107.8-9.27 96.86-9.27 93.15 0ZM100.65-18.75L98.18-12.57 106.48-12.57 104.02-18.75Q103.57-19.93 103.15-21.08 102.73-22.22 102.32-23.82L102.32-23.82Q101.9-22.22 101.52-21.09 101.14-19.97 100.65-18.75L100.65-18.75ZM123.39 10.42L119.64 10.42 119.64-20.83 123.11-20.83 123.11-18.09Q124.54-19.51 126.41-20.31 128.29-21.11 130.44-21.11L130.44-21.11Q133.32-21.11 135.66-19.67 138.01-18.23 139.41-15.8 140.82-13.37 140.82-10.42L140.82-10.42Q140.82-7.47 139.41-5.03 138.01-2.6 135.66-1.16 133.32 0.28 130.44 0.28L130.44 0.28Q128.39 0.28 126.58-0.45 124.78-1.18 123.39-2.47L123.39-2.47 123.39 10.42ZM129.95-3.13L129.95-3.13Q131.93-3.13 133.55-4.11 135.16-5.1 136.12-6.75 137.07-8.4 137.07-10.42L137.07-10.42Q137.07-12.43 136.12-14.08 135.16-15.73 133.55-16.72 131.93-17.71 129.95-17.71L129.95-17.71Q127.97-17.71 126.36-16.72 124.74-15.73 123.79-14.08 122.83-12.43 122.83-10.42L122.83-10.42Q122.83-8.4 123.79-6.75 124.74-5.1 126.36-4.11 127.97-3.13 129.95-3.13ZM149.78 10.42L146.03 10.42 146.03-20.83 149.5-20.83 149.5-18.09Q150.92-19.51 152.8-20.31 154.67-21.11 156.83-21.11L156.83-21.11Q159.71-21.11 162.05-19.67 164.39-18.23 165.8-15.8 167.21-13.37 167.21-10.42L167.21-10.42Q167.21-7.47 165.8-5.03 164.39-2.6 162.05-1.16 159.71 0.28 156.83 0.28L156.83 0.28Q154.78 0.28 152.97-0.45 151.17-1.18 149.78-2.47L149.78-2.47 149.78 10.42ZM156.34-3.13L156.34-3.13Q158.32-3.13 159.93-4.11 161.55-5.1 162.5-6.75 163.46-8.4 163.46-10.42L163.46-10.42Q163.46-12.43 162.5-14.08 161.55-15.73 159.93-16.72 158.32-17.71 156.34-17.71L156.34-17.71Q154.36-17.71 152.75-16.72 151.13-15.73 150.18-14.08 149.22-12.43 149.22-10.42L149.22-10.42Q149.22-8.4 150.18-6.75 151.13-5.1 152.75-4.11 154.36-3.13 156.34-3.13Z" opacity="1" transform="matrix(1,0,0,1,0,0)" fill="#000000" class="wordmark-text-0" data-fill-palette-color="primary" id="text-0"></path></svg></g></svg></g><g transform="matrix(1,0,0,1,0,81.94385040715437)"><svg viewBox="0 0 244.43135999999998 27.655104695703614" height="27.655104695703614" width="244.43135999999998"><g transform="matrix(1,0,0,1,0,0)"><svg width="244.43135999999998" viewBox="4.69 -36.74 330.12 37.35" height="27.655104695703614" data-palette-color="#000000"><path d="M8.69 0L4.69 0 4.69-33.84 15.14-33.84Q18.58-33.84 21.23-32.93 23.88-32.03 25.38-29.97 26.88-27.91 26.88-24.41L26.88-24.41Q26.88-21.07 25.38-18.86 23.88-16.65 21.23-15.56 18.58-14.48 15.14-14.48L15.14-14.48 8.69-14.48 8.69 0ZM8.69-30.54L8.69-17.72 14.53-17.72Q18.53-17.72 20.7-19.38 22.88-21.04 22.88-24.41L22.88-24.41Q22.88-27.83 20.7-29.19 18.53-30.54 14.53-30.54L14.53-30.54 8.69-30.54ZM27.81 0L23.29 0 14.31-15.6 17.55-17.6 27.81 0ZM43.41 0.61L43.41 0.61Q40.11 0.61 37.41-0.95 34.71-2.51 33.12-5.44 31.52-8.37 31.52-12.45L31.52-12.45Q31.52-16.53 33.12-19.48 34.71-22.44 37.28-24.02 39.84-25.61 42.7-25.61L42.7-25.61Q47.41-25.61 50-22.46 52.59-19.31 52.59-13.89L52.59-13.89Q52.59-12.52 52.44-11.57L52.44-11.57 35.42-11.57Q35.62-7.5 37.91-5 40.21-2.51 43.87-2.51L43.87-2.51Q45.75-2.51 47.31-3.02 48.87-3.52 50.22-4.42L50.22-4.42 51.61-1.95Q49.97-0.83 48-0.11 46.02 0.61 43.41 0.61ZM35.37-14.43L35.37-14.43 49.09-14.43Q49.09-18.36 47.43-20.41 45.77-22.46 42.75-22.46L42.75-22.46Q40.04-22.46 37.9-20.36 35.76-18.26 35.37-14.43ZM64.57 0.61L64.57 0.61Q61.45 0.61 59.35-1.21 57.25-3.03 57.25-6.42L57.25-6.42Q57.25-10.52 60.97-12.72 64.69-14.92 72.72-15.82L72.72-15.82Q72.72-17.48 72.27-18.97 71.82-20.46 70.69-21.41 69.55-22.36 67.45-22.36L67.45-22.36Q65.23-22.36 63.29-21.51 61.35-20.65 59.88-19.73L59.88-19.73 58.34-22.36Q60-23.51 62.53-24.56 65.06-25.61 68.09-25.61L68.09-25.61Q72.65-25.61 74.67-22.8 76.68-20 76.68-15.41L76.68-15.41 76.68 0 73.38 0 73.07-3.03 72.92-3.03Q71.11-1.54 69-0.46 66.89 0.61 64.57 0.61ZM65.64-2.56L65.64-2.56Q67.52-2.56 69.17-3.44 70.82-4.32 72.72-5.96L72.72-5.96 72.72-13.18Q68.4-12.65 65.86-11.77 63.33-10.89 62.23-9.64 61.13-8.4 61.13-6.74L61.13-6.74Q61.13-4.52 62.45-3.54 63.76-2.56 65.64-2.56ZM93.16 0.61L93.16 0.61Q88.49 0.61 85.67-2.8 82.85-6.2 82.85-12.45L82.85-12.45Q82.85-16.5 84.38-19.46 85.91-22.41 88.38-24.01 90.86-25.61 93.72-25.61L93.72-25.61Q95.89-25.61 97.51-24.84 99.14-24.07 100.77-22.71L100.77-22.71 100.63-27 100.63-36.74 104.61-36.74 104.61 0 101.31 0 100.99-2.98 100.85-2.98Q99.36-1.51 97.4-0.45 95.45 0.61 93.16 0.61ZM94.04-2.71L94.04-2.71Q95.82-2.71 97.4-3.58 98.99-4.44 100.63-6.23L100.63-6.23 100.63-19.58Q98.97-21.04 97.45-21.68 95.94-22.31 94.35-22.31L94.35-22.31Q92.28-22.31 90.61-21.07 88.93-19.82 87.93-17.6 86.93-15.38 86.93-12.45L86.93-12.45Q86.93-7.89 88.79-5.3 90.64-2.71 94.04-2.71ZM135.02 0.61L135.02 0.61Q131.9 0.61 129.8-1.21 127.7-3.03 127.7-6.42L127.7-6.42Q127.7-10.52 131.42-12.72 135.14-14.92 143.18-15.82L143.18-15.82Q143.18-17.48 142.72-18.97 142.27-20.46 141.14-21.41 140-22.36 137.9-22.36L137.9-22.36Q135.68-22.36 133.74-21.51 131.8-20.65 130.33-19.73L130.33-19.73 128.8-22.36Q130.46-23.51 132.98-24.56 135.51-25.61 138.54-25.61L138.54-25.61Q143.1-25.61 145.12-22.8 147.13-20 147.13-15.41L147.13-15.41 147.13 0 143.84 0 143.52-3.03 143.37-3.03Q141.56-1.54 139.45-0.46 137.34 0.61 135.02 0.61ZM136.1-2.56L136.1-2.56Q137.98-2.56 139.62-3.44 141.27-4.32 143.18-5.96L143.18-5.96 143.18-13.18Q138.85-12.65 136.32-11.77 133.78-10.89 132.68-9.64 131.58-8.4 131.58-6.74L131.58-6.74Q131.58-4.52 132.9-3.54 134.22-2.56 136.1-2.56ZM159.07 0L155.11 0 155.11-24.98 158.41-24.98 158.77-21.39 158.87-21.39Q160.68-23.17 162.7-24.39 164.73-25.61 167.32-25.61L167.32-25.61Q171.23-25.61 173.06-23.13 174.89-20.65 174.89-15.87L174.89-15.87 174.89 0 170.98 0 170.98-15.36Q170.98-18.92 169.83-20.56 168.69-22.19 166.07-22.19L166.07-22.19Q164.15-22.19 162.58-21.17 161.02-20.14 159.07-18.19L159.07-18.19 159.07 0ZM191.63 0.61L191.63 0.61Q186.97 0.61 184.15-2.8 181.33-6.2 181.33-12.45L181.33-12.45Q181.33-16.5 182.86-19.46 184.38-22.41 186.86-24.01 189.34-25.61 192.19-25.61L192.19-25.61Q194.37-25.61 195.99-24.84 197.61-24.07 199.25-22.71L199.25-22.71 199.1-27 199.1-36.74 203.08-36.74 203.08 0 199.79 0 199.47-2.98 199.32-2.98Q197.83-1.51 195.88-0.45 193.93 0.61 191.63 0.61ZM192.51-2.71L192.51-2.71Q194.29-2.71 195.88-3.58 197.47-4.44 199.1-6.23L199.1-6.23 199.1-19.58Q197.44-21.04 195.93-21.68 194.42-22.31 192.83-22.31L192.83-22.31Q190.75-22.31 189.08-21.07 187.41-19.82 186.41-17.6 185.41-15.38 185.41-12.45L185.41-12.45Q185.41-7.89 187.26-5.3 189.12-2.71 192.51-2.71ZM236.55 0L231.79 0 224.64-33.84 228.81-33.84 232.37-15.19Q232.86-12.45 233.39-9.74 233.91-7.03 234.38-4.27L234.38-4.27 234.57-4.27Q235.16-7.03 235.78-9.74 236.4-12.45 237.01-15.19L237.01-15.19 241.9-33.84 245.56-33.84 250.25-15.19Q250.91-12.48 251.54-9.75 252.17-7.03 252.79-4.27L252.79-4.27 252.98-4.27Q253.49-7.03 253.97-9.75 254.45-12.48 254.93-15.19L254.93-15.19 258.69-33.84 262.58-33.84 255.35 0 250.56 0 245.36-20.75Q244.92-22.78 244.51-24.65 244.09-26.51 243.7-28.49L243.7-28.49 243.51-28.49Q243.12-26.51 242.67-24.65 242.21-22.78 241.8-20.75L241.8-20.75 236.55 0ZM272.09 0L268.14 0 268.14-24.98 271.43-24.98 271.8-20.46 271.9-20.46Q273.22-22.8 275.05-24.21 276.88-25.61 279-25.61L279-25.61Q280.61-25.61 281.64-25.1L281.64-25.1 280.76-21.73Q280.22-21.9 279.75-21.97 279.27-22.05 278.49-22.05L278.49-22.05Q276.9-22.05 275.15-20.74 273.39-19.43 272.09-16.16L272.09-16.16 272.09 0ZM289.77 0L285.81 0 285.81-24.98 289.77-24.98 289.77 0ZM287.86-30.25L287.86-30.25Q286.67-30.25 285.93-30.99 285.2-31.74 285.2-32.98L285.2-32.98Q285.2-34.13 285.93-34.86 286.67-35.6 287.86-35.6L287.86-35.6Q289.06-35.6 289.79-34.86 290.52-34.13 290.52-32.98L290.52-32.98Q290.52-31.74 289.79-30.99 289.06-30.25 287.86-30.25ZM306.1 0.61L306.1 0.61Q302.17 0.61 300.63-1.66 299.09-3.93 299.09-7.62L299.09-7.62 299.09-21.73 295.38-21.73 295.38-24.78 299.31-24.98 299.77-33.08 303.07-33.08 303.07-24.98 309.93-24.98 309.93-21.73 303.07-21.73 303.07-7.52Q303.07-5.2 303.93-3.91 304.78-2.61 306.98-2.61L306.98-2.61Q307.64-2.61 308.37-2.75 309.1-2.88 309.86-3.22L309.86-3.22 310.74-0.44Q309.74 0 308.54 0.31 307.34 0.61 306.1 0.61ZM325.63 0.61L325.63 0.61Q322.33 0.61 319.63-0.95 316.94-2.51 315.34-5.44 313.74-8.37 313.74-12.45L313.74-12.45Q313.74-16.53 315.34-19.48 316.94-22.44 319.5-24.02 322.06-25.61 324.92-25.61L324.92-25.61Q329.63-25.61 332.22-22.46 334.81-19.31 334.81-13.89L334.81-13.89Q334.81-12.52 334.66-11.57L334.66-11.57 317.64-11.57Q317.84-7.5 320.13-5 322.43-2.51 326.09-2.51L326.09-2.51Q327.97-2.51 329.53-3.02 331.1-3.52 332.44-4.42L332.44-4.42 333.83-1.95Q332.19-0.83 330.22-0.11 328.24 0.61 325.63 0.61ZM317.59-14.43L317.59-14.43 331.32-14.43Q331.32-18.36 329.66-20.41 327.99-22.46 324.97-22.46L324.97-22.46Q322.26-22.46 320.12-20.36 317.99-18.26 317.59-14.43Z" opacity="1" transform="matrix(1,0,0,1,0,0)" fill="#000000" class="slogan-text-1" data-fill-palette-color="secondary" id="text-1"></path></svg></g></svg></g></svg></g></svg></g></svg></g></svg></g></svg></g><g><path d="M245.816 0c68.262 0 123.6 55.338 123.6 123.6 0 68.262-55.338 123.6-123.6 123.6-45.408 0-85.097-24.486-106.584-60.975h3.485c21.164 34.768 59.42 57.986 103.099 57.986 66.612 0 120.611-53.999 120.61-120.611 0-66.612-53.999-120.611-120.61-120.611-43.679 0-81.935 23.218-103.099 57.986l-3.485 0c21.486-36.489 61.175-60.975 106.584-60.975z" fill="#000000" stroke="transparent" data-fill-palette-color="tertiary"></path></g></svg></g><defs></defs></svg><rect width="395.52" height="247.2" fill="none" stroke="none" visibility="hidden"></rect></g></svg></g></svg>